<?xml version="1.0" encoding="UTF-8"?>
<svg version="1.1" xmlns="http://www.w3.org/2000/svg" width="1500" height="1500">
<path d="M0 0 C495 0 990 0 1500 0 C1500 495 1500 990 1500 1500 C1005 1500 510 1500 0 1500 C0 1005 0 510 0 0 Z " fill="#EE4343" transform="translate(0,0)"/>
<path d="M0 0 C4.32347948 1.72939179 7.9830743 3.71176567 11.875 6.1875 C12.56279541 6.6211084 13.25059082 7.0547168 13.95922852 7.50146484 C20.97693694 11.94578244 27.92470357 16.49816942 34.87451172 21.04760742 C42.05418422 25.74416849 49.26765271 30.38503082 56.5 35 C66.60554233 41.45062998 76.66036041 47.97538392 86.6953125 54.53515625 C93.4505466 58.95092059 100.22757804 63.33267583 107.00683594 67.71142578 C108.98754495 68.99194785 110.96667404 70.27487502 112.9453125 71.55859375 C121.31788542 76.98835179 129.7151984 82.37807196 138.125 87.75 C148.35406632 94.28609994 158.53474846 100.89320366 168.6953125 107.53515625 C175.43897506 111.9433565 182.20415852 116.31800915 188.97167969 120.68945312 C192.48232796 122.95776799 195.99104113 125.22907298 199.5 127.5 C200.91665794 128.41668015 202.33332459 129.33334684 203.75 130.25 C212.25 135.75 212.25 135.75 214.37817383 137.12792969 C215.78319524 138.0364811 217.1892699 138.94340595 218.59643555 139.84863281 C222.32691241 142.25159179 226.03048364 144.68704636 229.70703125 147.171875 C230.47789062 147.68685547 231.24875 148.20183594 232.04296875 148.73242188 C233.5251184 149.72349784 235.00074666 150.7244164 236.46875 151.73632812 C237.13519531 152.17912109 237.80164063 152.62191406 238.48828125 153.078125 C239.07134033 153.47418945 239.65439941 153.87025391 240.25512695 154.27832031 C242.63591925 155.26301627 243.60845087 154.93060048 246 154 C247.78675838 152.98548018 249.53745327 151.90649909 251.26171875 150.7890625 C252.80279297 149.79616211 252.80279297 149.79616211 254.375 148.78320312 C255.468125 148.07099609 256.56125 147.35878906 257.6875 146.625 C258.82910086 145.88686501 259.97103076 145.14923867 261.11328125 144.41210938 C264.41284389 142.28085247 267.70656216 140.14070853 271 138 C272.51661514 137.01774735 274.0334961 136.03590486 275.55078125 135.0546875 C277.5230332 133.77915889 279.4950133 132.50323445 281.46557617 131.22509766 C288.8824366 126.41699973 296.33404252 121.6632371 303.78125 116.90234375 C309.69829234 113.11802177 315.60781618 109.32290498 321.5 105.5 C329.57022593 100.26396056 337.67598475 95.08392403 345.78125 89.90234375 C351.69829234 86.11802177 357.60781618 82.32290498 363.5 78.5 C371.57022593 73.26396056 379.67598475 68.08392403 387.78125 62.90234375 C393.69829234 59.11802177 399.60781618 55.32290498 405.5 51.5 C413.57022593 46.26396056 421.67598475 41.08392403 429.78125 35.90234375 C435.69829601 32.11801942 441.60752615 28.32246161 447.5 24.5 C454.15924999 20.18590961 460.82251416 15.8780237 467.49707031 11.58764648 C469.14912036 10.52469401 470.79919409 9.4586719 472.44921875 8.39257812 C473.980625 7.4093457 473.980625 7.4093457 475.54296875 6.40625 C476.45071045 5.82166016 477.35845215 5.23707031 478.29370117 4.63476562 C481.1078274 2.93486583 484.05939248 1.47030376 487 0 C487 150.48 487 300.96 487 456 C451.03 456 415.06 456 378 456 C378 371.85 378 287.7 378 201 C359.57604347 212.49731353 359.57604347 212.49731353 341.3046875 224.2109375 C336.39108417 227.40328791 331.44596196 230.54560153 326.5 233.6875 C318.49012178 238.77633499 310.49080985 243.88127256 302.5 249 C296.47274606 252.860458 290.44482684 256.71976928 284.40625 260.5625 C283.50898193 261.13355469 282.61171387 261.70460938 281.68725586 262.29296875 C279.90835057 263.42298654 278.12793287 264.55062725 276.34594727 265.67578125 C271.85637118 268.51620027 267.3949598 271.38962054 262.97860718 274.34301758 C260.69552622 275.86767216 258.40363601 277.37879619 256.11108398 278.88916016 C254.46835312 279.97952127 252.83850518 281.08921244 251.20898438 282.19921875 C250.21060547 282.85535156 249.21222656 283.51148438 248.18359375 284.1875 C247.30243896 284.77917969 246.42128418 285.37085938 245.51342773 285.98046875 C243 287 243 287 240.43334961 286.33007812 C238.2067945 285.11303466 236.02424624 283.89235245 233.8828125 282.53125 C233.11936523 282.04809326 232.35591797 281.56493652 231.56933594 281.06713867 C230.76270508 280.54998291 229.95607422 280.03282715 229.125 279.5 C228.27711914 278.96028564 227.42923828 278.42057129 226.55566406 277.86450195 C220.98062242 274.30325264 215.45353574 270.67591583 209.96264648 266.98657227 C204.40314895 263.25379797 198.7991444 259.59131875 193.1875 255.9375 C192.21586914 255.30481201 191.24423828 254.67212402 190.24316406 254.02026367 C188.21079087 252.69691533 186.17840117 251.37359234 184.14599609 250.05029297 C178.75976345 246.54000415 173.38011256 243.01965867 168 239.5 C156.93151616 232.26079959 145.85811147 225.0292063 134.77685547 217.80957031 C132.88235477 216.5749968 130.98816211 215.33995048 129.09423828 214.10449219 C126.29265145 212.27698104 123.49018323 210.45082912 120.6875 208.625 C119.83881348 208.07102539 118.99012695 207.51705078 118.11572266 206.94628906 C117.33890137 206.4406543 116.56208008 205.93501953 115.76171875 205.4140625 C115.08069092 204.9701416 114.39966309 204.5262207 113.69799805 204.06884766 C111.98370183 202.95101517 111.98370183 202.95101517 110 202 C110 286.15 110 370.3 110 457 C73.7 457 37.4 457 0 457 C0 306.19 0 155.38 0 0 Z " fill="#000000" transform="translate(325,632)"/>
<path d="M0 0 C105.6 0 211.2 0 320 0 C320 32.67 320 65.34 320 99 C250.7 99 181.4 99 110 99 C110 125.73 110 152.46 110 180 C168.74 180 227.48 180 288 180 C288 212.34 288 244.68 288 278 C229.26 278 170.52 278 110 278 C110 304.73 110 331.46 110 359 C179.3 359 248.6 359 320 359 C320 391.67 320 424.34 320 458 C214.4 458 108.8 458 0 458 C0 306.86 0 155.72 0 0 Z " fill="#000000" transform="translate(855,631)"/>
<path d="M0 0 C3.04823277 2.66480727 5.81956651 5.56956651 8.6875 8.4375 C9.0175 2.4975 9.3475 -3.4425 9.6875 -9.5625 C25.1975 -9.5625 40.7075 -9.5625 56.6875 -9.5625 C56.6875 48.1875 56.6875 105.9375 56.6875 165.4375 C41.1775 165.4375 25.6675 165.4375 9.6875 165.4375 C9.6875 159.1675 9.6875 152.8975 9.6875 146.4375 C9.0275 146.4375 8.3675 146.4375 7.6875 146.4375 C7.43742187 147.02660156 7.18734375 147.61570312 6.9296875 148.22265625 C2.54165959 156.04659281 -7.28148945 159.63817909 -15.3125 162.4375 C-16.33214844 162.80488281 -17.35179687 163.17226563 -18.40234375 163.55078125 C-32.65673856 167.47892752 -50.53546497 165.25708417 -64.3125 160.4375 C-65.36050781 160.086875 -66.40851562 159.73625 -67.48828125 159.375 C-88.10191419 151.67496591 -105.22444565 134.48718014 -114.6875 114.875 C-122.75600248 96.13230302 -125.09924901 75.43278066 -120.3125 55.4375 C-120.12945313 54.62796875 -119.94640625 53.8184375 -119.7578125 52.984375 C-113.98968794 30.90883657 -98.10799263 12.66678084 -78.7265625 1.29296875 C-55.84602426 -11.64403299 -22.46600067 -16.76676973 0 0 Z " fill="#000000" transform="translate(1039.3125,447.5625)"/>
<path d="M0 0 C13.85079043 12.04678633 22.40986693 25.60040524 26.875 43.4609375 C27.205 48.7409375 27.535 54.0209375 27.875 59.4609375 C12.365 59.4609375 -3.145 59.4609375 -19.125 59.4609375 C-20.115 53.5209375 -20.115 53.5209375 -21.125 47.4609375 C-26.72534829 38.12702368 -33.74424664 33.52512031 -44 30.22265625 C-60.43572168 26.21644909 -82.16580488 26.56503455 -97.12890625 35.09375 C-100.98395737 37.73419597 -103.6160901 39.93759258 -104.59375 44.78515625 C-104.92272123 50.15561162 -104.01736096 54.28447784 -100.8359375 58.65234375 C-89.99183642 70.11540037 -71.78025599 71.70378528 -57.00488281 73.37670898 C-33.3652273 76.09613268 -10.27337483 83.58500069 7.875 99.4609375 C8.51308594 100.01523437 9.15117187 100.56953125 9.80859375 101.140625 C20.11185081 110.73252133 26.9300413 124.76571239 28.06567383 138.82080078 C28.14140273 141.20416439 28.14833799 143.57657332 28.125 145.9609375 C28.13273438 146.75113281 28.14046875 147.54132813 28.1484375 148.35546875 C28.10267478 162.33597911 23.21306046 175.05065715 13.875 185.4609375 C13.26785156 186.14929688 12.66070312 186.83765625 12.03515625 187.546875 C-3.37657763 203.99866454 -27.26763998 210.71420889 -49.25097656 211.68334961 C-53.77152153 211.82491488 -58.29004682 211.84704846 -62.8125 211.8359375 C-63.60736816 211.83572601 -64.40223633 211.83551453 -65.22119141 211.83529663 C-76.94975469 211.80413193 -87.93402928 211.27888612 -99.125 207.4609375 C-100.21554687 207.09871094 -101.30609375 206.73648438 -102.4296875 206.36328125 C-121.9958647 199.01974146 -138.61632177 183.37322363 -147.46875 164.61328125 C-152.84573007 152.49944533 -153.125 143.14385126 -153.125 129.4609375 C-137.945 129.4609375 -122.765 129.4609375 -107.125 129.4609375 C-106.465 133.4209375 -105.805 137.3809375 -105.125 141.4609375 C-101.44668506 150.65672485 -96.66929834 156.51637983 -87.625 160.7734375 C-79.9201247 164.0480095 -72.70948931 164.79325654 -64.4375 164.7109375 C-63.46651367 164.70489502 -62.49552734 164.69885254 -61.49511719 164.69262695 C-54.2305898 164.59270639 -47.22936282 164.06092856 -40.125 162.4609375 C-39.21492188 162.26628906 -38.30484375 162.07164062 -37.3671875 161.87109375 C-30.88367697 160.2357008 -25.5385759 157.41561424 -21.96875 151.56640625 C-20.3626643 147.55862758 -20.42651683 143.68358575 -21.125 139.4609375 C-23.81950401 133.33995792 -28.35989291 130.30839925 -34.26953125 127.56640625 C-41.48067704 124.77467676 -48.46985243 122.86911412 -56.109375 121.6640625 C-58.03524837 121.3416957 -59.96102654 121.01875971 -61.88671875 120.6953125 C-64.85978195 120.2039292 -67.8334184 119.71758059 -70.80908203 119.2421875 C-97.42239342 114.96050844 -126.37477207 107.53355538 -143.125 84.4609375 C-152.56581677 69.45360141 -155.73026969 52.71608251 -152.44140625 35.19921875 C-148.22274881 18.16704576 -137.9645399 3.96409113 -123.125 -5.5390625 C-88.60338862 -25.09358599 -31.62450777 -26.36027968 0 0 Z " fill="#010000" transform="translate(468.125,401.5390625)"/>
<path d="M0 0 C1.76923828 -0.02090698 1.76923828 -0.02090698 3.57421875 -0.04223633 C26.44260403 0.08072915 45.98362234 10.52776506 61.875 26.375 C63.0815625 27.54675781 63.0815625 27.54675781 64.3125 28.7421875 C80.76602313 45.70988323 86.33984693 67.42127331 86.08984375 90.41796875 C85.51264001 113.02929777 76.34390695 132.99749352 60.875 149.375 C43.03679893 166.15298109 22.4825459 174.40899723 -1.75 174.625 C-2.62100342 174.63450684 -3.49200684 174.64401367 -4.3894043 174.65380859 C-27.43778565 174.53635907 -47.98953653 164.30983601 -64.125 148.375 C-81.32502589 130.94324591 -88.39681892 108.8183652 -88.37158203 84.73876953 C-88.09730537 59.69693506 -77.78498569 40.06795408 -60.26953125 22.515625 C-51.16716401 14.05372283 -39.90262042 7.28553803 -28.125 3.375 C-27.17625 3.05660156 -26.2275 2.73820312 -25.25 2.41015625 C-16.90683949 0.14707396 -8.60169048 0.06572608 0 0 Z " fill="#010000" transform="translate(598.125,438.625)"/>
<path d="M0 0 C0.54527344 0.54398437 1.09054687 1.08796875 1.65234375 1.6484375 C1.65234375 4.6484375 1.65234375 4.6484375 -0.24023438 6.89746094 C-1.54637695 8.18958496 -1.54637695 8.18958496 -2.87890625 9.5078125 C-3.34824585 9.97527893 -3.81758545 10.44274536 -4.30114746 10.92437744 C-5.29982083 11.91632031 -6.3020893 12.90465462 -7.30761719 13.88964844 C-8.82075566 15.37208277 -10.32339008 16.86449021 -11.82421875 18.359375 C-17.16261662 23.65392839 -22.5990511 28.79674825 -28.34765625 33.6484375 C-29.3840625 33.22691406 -30.42046875 32.80539062 -31.48828125 32.37109375 C-32.85801716 31.81757034 -34.22781193 31.26419256 -35.59765625 30.7109375 C-36.27957031 30.43314453 -36.96148438 30.15535156 -37.6640625 29.86914062 C-48.10878612 25.66082965 -60.17144198 24.51474504 -70.84765625 28.7109375 C-82.5957752 34.44015715 -90.64878812 42.84699547 -95.4296875 55.0390625 C-98.19732745 65.92118724 -97.82379798 78.69954647 -92.34765625 88.6484375 C-86.00748133 99.17162724 -76.26431516 106.40515038 -64.53515625 109.9609375 C-53.01287323 112.35366966 -43.10749927 110.3356246 -32.91015625 104.7734375 C-30.34765625 103.6484375 -30.34765625 103.6484375 -28.37652588 104.40328979 C-26.40928314 105.61061615 -24.94351712 106.81079608 -23.32324219 108.44580078 C-22.76296326 109.00623077 -22.20268433 109.56666077 -21.62542725 110.14407349 C-21.03360657 110.74621674 -20.44178589 111.34835999 -19.83203125 111.96875 C-19.21620178 112.58740936 -18.60037231 113.20606873 -17.96588135 113.84347534 C-16.00505289 115.81547564 -14.05130324 117.79432487 -12.09765625 119.7734375 C-10.76738826 121.11373914 -9.43666425 122.45358833 -8.10546875 123.79296875 C-4.84755475 127.07290339 -1.59597092 130.35899692 1.65234375 133.6484375 C-1.10530474 139.89585355 -7.64405756 142.3766582 -13.34765625 145.6484375 C-14.02054688 146.05449219 -14.6934375 146.46054687 -15.38671875 146.87890625 C-33.42150641 156.96685825 -57.79951074 158.5629237 -77.49194336 153.48681641 C-101.86586879 146.54132095 -120.80761473 129.90431153 -133.22265625 108.2109375 C-143.34981538 88.52985467 -144.89178438 61.76911859 -138.34765625 40.6484375 C-129.49588012 16.93000862 -112.10067266 -2.14419919 -89.07421875 -12.7734375 C-59.66737977 -25.58038461 -25.00206365 -18.89044809 0 0 Z " fill="#010000" transform="translate(837.34765625,457.3515625)"/>
<path d="M0 0 C15.84 0 31.68 0 48 0 C48 77.88 48 155.76 48 236 C32.16 236 16.32 236 0 236 C0 158.12 0 80.24 0 0 Z " fill="#030000" transform="translate(1116,377)"/>
<path d="M0 0 C15.84 0 31.68 0 48 0 C48 57.42 48 114.84 48 174 C32.16 174 16.32 174 0 174 C0 116.58 0 59.16 0 0 Z " fill="#020000" transform="translate(855,439)"/>
<path d="M0 0 C9.48940297 6.91370788 17.71525338 16.05745727 20.0625 27.96484375 C21.54786817 41.91337926 19.74951459 52.65795722 11.28125 63.9609375 C3.54505385 73.20139401 -5.6092242 78.75146958 -17.6875 80.3125 C-29.94709789 81.19424148 -39.99060879 79.04645776 -49.6875 71.3125 C-59.39608962 62.48650944 -65.53973704 53.14867046 -66.19873047 39.96166992 C-66.46672441 27.74752693 -63.43144883 18.31062914 -55.375 8.8125 C-40.88661097 -5.89285326 -18.32100009 -11.49368724 0 0 Z " fill="#ED4343" transform="translate(1026.6875,487.6875)"/>
<path d="M0 0 C8.08216553 4.51687744 14.51732822 9.5327611 19.48828125 17.390625 C20.04515625 18.195 20.60203125 18.999375 21.17578125 19.828125 C26.35285511 29.93574538 27.20612088 40.98641807 24.64453125 52.02734375 C20.48476591 63.90234954 12.84858991 72.9057947 1.80859375 78.828125 C-10.06348219 84.3705265 -22.17197115 84.71589735 -34.51171875 80.390625 C-44.74945945 75.91896814 -52.75974828 67.44287023 -57.51171875 57.390625 C-57.80820312 56.77445313 -58.1046875 56.15828125 -58.41015625 55.5234375 C-62.02458984 46.73605308 -61.90042904 35.47102173 -58.94921875 26.515625 C-53.10838056 12.81844811 -43.96927286 4.25371144 -30.51171875 -1.609375 C-21.51695595 -4.60762927 -8.58704268 -3.79272181 0 0 Z " fill="#ED4343" transform="translate(614.51171875,485.609375)"/>
<path d="M0 0 C15.84 0 31.68 0 48 0 C48 13.2 48 26.4 48 40 C32.16 40 16.32 40 0 40 C0 26.8 0 13.6 0 0 Z " fill="#050101" transform="translate(855,377)"/>
</svg>
